<svg width="126" height="60" viewBox="0 0 126 60" fill="none" xmlns="http://www.w3.org/2000/svg">
<path d="M111.566 18.1279C114.523 18.1279 117.118 20.0959 117.915 22.9424L121.182 34.6084H77.459V39.5527H122.566L125.76 50.959C126.937 55.1624 123.776 59.3281 119.411 59.3281H6.5957C2.23061 59.3279 -0.928933 55.1623 0.248048 50.959L3.44141 39.5527H47.7939V34.6084H4.82617L8.09277 22.9424C8.89001 20.0959 11.4853 18.1279 14.4414 18.1279H111.566ZM59.9131 26.7549C57.1588 27.4769 54.9249 28.9509 53.2119 31.1777C51.4989 33.4046 50.6426 35.9474 50.6426 38.8057C50.6436 40.3517 50.9338 41.8646 51.5127 43.3447C52.0916 44.8248 53.0116 46.1963 54.2734 47.458L54.8916 47.998H50.6426V51.0889H59.9131V41.8184H56.8223V45.6035L56.4365 45.2178C55.5096 44.2919 54.8274 43.2812 54.3896 42.1865C53.9519 41.0916 53.7324 39.9644 53.7324 38.8057C53.7324 36.8239 54.2996 35.0279 55.4326 33.418C56.5657 31.8082 58.0591 30.6685 59.9131 29.999V26.7549ZM66.0928 35.6387H69.1836V31.8535L69.5693 32.2393C70.4964 33.1673 71.1794 34.1786 71.6172 35.2725C72.0549 36.3662 72.2734 37.4927 72.2734 38.6514C72.2734 40.635 71.7072 42.4313 70.5742 44.04C69.4412 45.6489 67.9469 46.7885 66.0928 47.458V50.7021C68.8492 49.9822 71.0839 48.5082 72.7959 46.2803C74.5077 44.0525 75.3632 41.5095 75.3633 38.6514C75.3643 37.1074 75.075 35.5944 74.4951 34.1133C73.9152 32.6322 72.9942 31.2607 71.7324 29.999L71.1152 29.458H75.3633V26.3682H66.0928V35.6387ZM109.975 0C113.615 0.00017474 116.566 2.95133 116.566 6.5918C116.566 10.2324 113.615 13.1844 109.975 13.1846H16.0332C12.3924 13.1845 9.44141 10.2324 9.44141 6.5918C9.44155 2.95127 12.3925 7.07089e-05 16.0332 0H109.975Z" fill="url(#paint0_linear_7_86)"/>
<defs>
<linearGradient id="paint0_linear_7_86" x1="114.919" y1="1.76013e-06" x2="39.1095" y2="59.3318" gradientUnits="userSpaceOnUse">
<stop stop-color="#565EFF"/>
<stop offset="0.987727" stop-color="#FE39CD"/>
</linearGradient>
</defs>
</svg>
